<svg xmlns="http://www.w3.org/2000/svg" xmlns:xlink="http://www.w3.org/1999/xlink" width="1168" height="284pt" viewBox="0 0 876 284"><g id="graph0" class="graph" transform="scale(1 1) rotate(0) translate(4 280)"><title>dependencies</title><polygon fill="#fff" stroke="transparent" points="-4 4 -4 -280 872 -280 872 4 -4 4"/><text x="413.009" y="-42.4" fill="#000" font-family="sans-serif" font-size="14" font-weight="bold" text-anchor="start">Legend</text><polygon fill="#ffffb3" stroke="transparent" points="200 -10 200 -30 220 -30 220 -10 200 -10"/><text x="223.629" y="-15.4" fill="#000" font-family="sans-serif" font-size="14" text-anchor="start">Declarations</text><polygon fill="#8dd3c7" stroke="transparent" points="313 -10 313 -30 333 -30 333 -10 313 -10"/><text x="336.725" y="-15.4" fill="#000" font-family="sans-serif" font-size="14" text-anchor="start">Module</text><polygon fill="#80b1d3" stroke="transparent" points="399 -10 399 -30 419 -30 419 -10 399 -10"/><text x="422.781" y="-15.4" fill="#000" font-family="sans-serif" font-size="14" text-anchor="start">Bootstrap</text><polygon fill="#fdb462" stroke="transparent" points="496 -10 496 -30 516 -30 516 -10 496 -10"/><text x="519.673" y="-15.4" fill="#000" font-family="sans-serif" font-size="14" text-anchor="start">Providers</text><polygon fill="#fb8072" stroke="transparent" points="592 -10 592 -30 612 -30 612 -10 592 -10"/><text x="615.726" y="-15.4" fill="#000" font-family="sans-serif" font-size="14" text-anchor="start">Exports</text><g id="clust1" class="cluster"><title>cluster_PetTypesModule</title><polygon fill="none" stroke="#000" stroke-dasharray="1 5" points="8 -70 8 -268 860 -268 860 -70 8 -70"/></g><g id="clust2" class="cluster"><title>cluster_PetTypesModule_declarations</title><polygon fill="none" stroke="#000" points="360 -78 360 -130 852 -130 852 -78 360 -78"/></g><g id="clust6" class="cluster"><title>cluster_PetTypesModule_imports</title><polygon fill="none" stroke="#000" points="184 -78 184 -130 352 -130 352 -78 184 -78"/></g><g id="clust7" class="cluster"><title>cluster_PetTypesModule_exports</title><polygon fill="none" stroke="#000" points="359 -208 359 -260 523 -260 523 -208 359 -208"/></g><g id="clust9" class="cluster"><title>cluster_PetTypesModule_providers</title><polygon fill="none" stroke="#000" points="16 -78 16 -130 176 -130 176 -78 16 -78"/></g><g id="node1" class="node"><title>PettypeAddComponent</title><polygon fill="#ffffb3" stroke="#000" points="843.933 -122 696.067 -122 696.067 -86 843.933 -86 843.933 -122"/><text x="770" y="-99.8" fill="#000" font-family="Times,serif" font-size="14" text-anchor="middle">PettypeAddComponent</text></g><g id="node4" class="node"><title>PetTypesModule</title><polygon fill="#8dd3c7" stroke="#000" points="496.65 -187 493.65 -191 472.65 -191 469.65 -187 385.35 -187 385.35 -151 496.65 -151 496.65 -187"/><text x="441" y="-164.8" fill="#000" font-family="Times,serif" font-size="14" text-anchor="middle">PetTypesModule</text></g><g id="edge1" class="edge"><title>PettypeAddComponent-&gt;PetTypesModule</title><path fill="none" stroke="#000" d="M770,-122.2843C770,-143.3211 770,-175 770,-175 770,-175 506.8104,-175 506.8104,-175"/><polygon fill="#000" stroke="#000" points="506.81 -171.5 496.81 -175 506.81 -178.5 506.81 -171.5"/></g><g id="node2" class="node"><title>PettypeEditComponent</title><polygon fill="#ffffb3" stroke="#000" points="678.16 -122 531.84 -122 531.84 -86 678.16 -86 678.16 -122"/><text x="605" y="-99.8" fill="#000" font-family="Times,serif" font-size="14" text-anchor="middle">PettypeEditComponent</text></g><g id="edge2" class="edge"><title>PettypeEditComponent-&gt;PetTypesModule</title><path fill="none" stroke="#000" d="M605,-122.0225C605,-139.3734 605,-163 605,-163 605,-163 506.9808,-163 506.9808,-163"/><polygon fill="#000" stroke="#000" points="506.981 -159.5 496.981 -163 506.981 -166.5 506.981 -159.5"/></g><g id="node3" class="node"><title>PettypeListComponent</title><polygon fill="#ffffb3" stroke="#000" points="513.604 -122 368.396 -122 368.396 -86 513.604 -86 513.604 -122"/><text x="441" y="-99.8" fill="#000" font-family="Times,serif" font-size="14" text-anchor="middle">PettypeListComponent</text></g><g id="edge3" class="edge"><title>PettypeListComponent-&gt;PetTypesModule</title><path fill="none" stroke="#000" d="M441,-122.1061C441,-122.1061 441,-140.991 441,-140.991"/><polygon fill="#000" stroke="#000" points="437.5 -140.991 441 -150.991 444.5 -140.991 437.5 -140.991"/></g><g id="node6" class="node"><title>PettypeListComponent</title><polygon fill="#fb8072" stroke="#000" points="515.104 -252 366.896 -252 366.896 -216 515.104 -216 515.104 -252"/><text x="441" y="-229.8" fill="#000" font-family="Times,serif" font-size="14" text-anchor="middle">PettypeListComponent</text></g><g id="edge5" class="edge"><title>PetTypesModule-&gt;PettypeListComponent</title><path fill="none" stroke="#000" stroke-dasharray="5 2" d="M441,-187.1061C441,-187.1061 441,-205.991 441,-205.991"/><polygon fill="#000" stroke="#000" points="437.5 -205.991 441 -215.991 444.5 -205.991 437.5 -205.991"/></g><g id="node5" class="node"><title>PettypesRoutingModule</title><polygon fill="#8dd3c7" stroke="#000" points="344.105 -122 341.105 -126 320.105 -126 317.105 -122 191.895 -122 191.895 -86 344.105 -86 344.105 -122"/><text x="268" y="-99.8" fill="#000" font-family="Times,serif" font-size="14" text-anchor="middle">PettypesRoutingModule</text></g><g id="edge4" class="edge"><title>PettypesRoutingModule-&gt;PetTypesModule</title><path fill="none" stroke="#000" d="M268,-122.0225C268,-139.3734 268,-163 268,-163 268,-163 375.3094,-163 375.3094,-163"/><polygon fill="#000" stroke="#000" points="375.31 -166.5 385.309 -163 375.309 -159.5 375.31 -166.5"/></g><g id="node7" class="node"><title>PetTypeService</title><ellipse cx="96" cy="-104" fill="#fdb462" stroke="#000" rx="72.348" ry="18"/><text x="96" y="-99.8" fill="#000" font-family="Times,serif" font-size="14" text-anchor="middle">PetTypeService</text></g><g id="edge6" class="edge"><title>PetTypeService-&gt;PetTypesModule</title><path fill="none" stroke="#000" d="M96,-122.2843C96,-143.3211 96,-175 96,-175 96,-175 375.1864,-175 375.1864,-175"/><polygon fill="#000" stroke="#000" points="375.186 -178.5 385.186 -175 375.186 -171.5 375.186 -178.5"/></g></g></svg>