<svg xmlns="http://www.w3.org/2000/svg" xmlns:xlink="http://www.w3.org/1999/xlink" width="744" height="211pt" viewBox="0 0 558 211"><g id="graph0" class="graph" transform="scale(1 1) rotate(0) translate(4 207)"><title>dependencies</title><polygon fill="#fff" stroke="transparent" points="-4 4 -4 -207 554 -207 554 4 -4 4"/><text x="254.009" y="-42.4" fill="#000" font-family="sans-serif" font-size="14" font-weight="bold" text-anchor="start">Legend</text><polygon fill="#ffffb3" stroke="transparent" points="41 -10 41 -30 61 -30 61 -10 41 -10"/><text x="64.629" y="-15.4" fill="#000" font-family="sans-serif" font-size="14" text-anchor="start">Declarations</text><polygon fill="#8dd3c7" stroke="transparent" points="154 -10 154 -30 174 -30 174 -10 154 -10"/><text x="177.725" y="-15.4" fill="#000" font-family="sans-serif" font-size="14" text-anchor="start">Module</text><polygon fill="#80b1d3" stroke="transparent" points="240 -10 240 -30 260 -30 260 -10 240 -10"/><text x="263.781" y="-15.4" fill="#000" font-family="sans-serif" font-size="14" text-anchor="start">Bootstrap</text><polygon fill="#fdb462" stroke="transparent" points="337 -10 337 -30 357 -30 357 -10 337 -10"/><text x="360.673" y="-15.4" fill="#000" font-family="sans-serif" font-size="14" text-anchor="start">Providers</text><polygon fill="#fb8072" stroke="transparent" points="433 -10 433 -30 453 -30 453 -10 433 -10"/><text x="456.726" y="-15.4" fill="#000" font-family="sans-serif" font-size="14" text-anchor="start">Exports</text><g id="clust1" class="cluster"><title>cluster_TestingModule</title><polygon fill="none" stroke="#000" stroke-dasharray="1 5" points="8 -70 8 -195 542 -195 542 -70 8 -70"/></g><g id="clust2" class="cluster"><title>cluster_TestingModule_declarations</title><polygon fill="none" stroke="#000" points="16 -78 16 -130 534 -130 534 -78 16 -78"/></g><g id="node1" class="node"><title>DummyComponent</title><polygon fill="#ffffb3" stroke="#000" points="525.72 -122 398.28 -122 398.28 -86 525.72 -86 525.72 -122"/><text x="462" y="-99.8" fill="#000" font-family="Times,serif" font-size="14" text-anchor="middle">DummyComponent</text></g><g id="node4" class="node"><title>TestingModule</title><polygon fill="#8dd3c7" stroke="#000" points="351.544 -187 348.544 -191 327.544 -191 324.544 -187 250.456 -187 250.456 -151 351.544 -151 351.544 -187"/><text x="301" y="-164.8" fill="#000" font-family="Times,serif" font-size="14" text-anchor="middle">TestingModule</text></g><g id="edge1" class="edge"><title>DummyComponent-&gt;TestingModule</title><path fill="none" stroke="#000" d="M462,-122.1061C462,-141.3391 462,-169 462,-169 462,-169 361.9414,-169 361.9414,-169"/><polygon fill="#000" stroke="#000" points="361.941 -165.5 351.941 -169 361.941 -172.5 361.941 -165.5"/></g><g id="node2" class="node"><title>RouterLinkStubDirective</title><polygon fill="#ffffb3" stroke="#000" points="380.302 -122 221.698 -122 221.698 -86 380.302 -86 380.302 -122"/><text x="301" y="-99.8" fill="#000" font-family="Times,serif" font-size="14" text-anchor="middle">RouterLinkStubDirective</text></g><g id="edge2" class="edge"><title>RouterLinkStubDirective-&gt;TestingModule</title><path fill="none" stroke="#000" d="M301,-122.1061C301,-122.1061 301,-140.991 301,-140.991"/><polygon fill="#000" stroke="#000" points="297.5 -140.991 301 -150.991 304.5 -140.991 297.5 -140.991"/></g><g id="node3" class="node"><title>RouterOutletStubComponent</title><polygon fill="#ffffb3" stroke="#000" points="204.101 -122 23.899 -122 23.899 -86 204.101 -86 204.101 -122"/><text x="114" y="-99.8" fill="#000" font-family="Times,serif" font-size="14" text-anchor="middle">RouterOutletStubComponent</text></g><g id="edge3" class="edge"><title>RouterOutletStubComponent-&gt;TestingModule</title><path fill="none" stroke="#000" d="M114,-122.1061C114,-141.3391 114,-169 114,-169 114,-169 240.3951,-169 240.3951,-169"/><polygon fill="#000" stroke="#000" points="240.395 -172.5 250.395 -169 240.395 -165.5 240.395 -172.5"/></g></g></svg>