<svg xmlns="http://www.w3.org/2000/svg" xmlns:xlink="http://www.w3.org/1999/xlink" width="1132" height="284pt" viewBox="0 0 849 284"><g id="graph0" class="graph" transform="scale(1 1) rotate(0) translate(4 280)"><title>dependencies</title><polygon fill="#fff" stroke="transparent" points="-4 4 -4 -280 845 -280 845 4 -4 4"/><text x="399.509" y="-42.4" fill="#000" font-family="sans-serif" font-size="14" font-weight="bold" text-anchor="start">Legend</text><polygon fill="#ffffb3" stroke="transparent" points="186.5 -10 186.5 -30 206.5 -30 206.5 -10 186.5 -10"/><text x="210.129" y="-15.4" fill="#000" font-family="sans-serif" font-size="14" text-anchor="start">Declarations</text><polygon fill="#8dd3c7" stroke="transparent" points="299.5 -10 299.5 -30 319.5 -30 319.5 -10 299.5 -10"/><text x="323.225" y="-15.4" fill="#000" font-family="sans-serif" font-size="14" text-anchor="start">Module</text><polygon fill="#80b1d3" stroke="transparent" points="385.5 -10 385.5 -30 405.5 -30 405.5 -10 385.5 -10"/><text x="409.281" y="-15.4" fill="#000" font-family="sans-serif" font-size="14" text-anchor="start">Bootstrap</text><polygon fill="#fdb462" stroke="transparent" points="482.5 -10 482.5 -30 502.5 -30 502.5 -10 482.5 -10"/><text x="506.173" y="-15.4" fill="#000" font-family="sans-serif" font-size="14" text-anchor="start">Providers</text><polygon fill="#fb8072" stroke="transparent" points="578.5 -10 578.5 -30 598.5 -30 598.5 -10 578.5 -10"/><text x="602.226" y="-15.4" fill="#000" font-family="sans-serif" font-size="14" text-anchor="start">Exports</text><g id="clust1" class="cluster"><title>cluster_PetsModule</title><polygon fill="none" stroke="#000" stroke-dasharray="1 5" points="8 -70 8 -268 833 -268 833 -70 8 -70"/></g><g id="clust2" class="cluster"><title>cluster_PetsModule_declarations</title><polygon fill="none" stroke="#000" points="406 -78 406 -130 825 -130 825 -78 406 -78"/></g><g id="clust6" class="cluster"><title>cluster_PetsModule_imports</title><polygon fill="none" stroke="#000" points="144 -78 144 -130 398 -130 398 -78 144 -78"/></g><g id="clust7" class="cluster"><title>cluster_PetsModule_exports</title><polygon fill="none" stroke="#000" points="187 -208 187 -260 615 -260 615 -208 187 -208"/></g><g id="clust9" class="cluster"><title>cluster_PetsModule_providers</title><polygon fill="none" stroke="#000" points="16 -78 16 -130 136 -130 136 -78 16 -78"/></g><g id="node1" class="node"><title>PetAddComponent</title><polygon fill="#ffffb3" stroke="#000" points="816.827 -122 693.173 -122 693.173 -86 816.827 -86 816.827 -122"/><text x="755" y="-99.8" fill="#000" font-family="Times,serif" font-size="14" text-anchor="middle">PetAddComponent</text></g><g id="node4" class="node"><title>PetsModule</title><polygon fill="#8dd3c7" stroke="#000" points="441.382 -187 438.382 -191 417.382 -191 414.382 -187 358.618 -187 358.618 -151 441.382 -151 441.382 -187"/><text x="400" y="-164.8" fill="#000" font-family="Times,serif" font-size="14" text-anchor="middle">PetsModule</text></g><g id="edge1" class="edge"><title>PetAddComponent-&gt;PetsModule</title><path fill="none" stroke="#000" d="M755,-122.1061C755,-141.3391 755,-169 755,-169 755,-169 451.4178,-169 451.4178,-169"/><polygon fill="#000" stroke="#000" points="451.418 -165.5 441.418 -169 451.418 -172.5 451.418 -165.5"/></g><g id="node2" class="node"><title>PetEditComponent</title><polygon fill="#ffffb3" stroke="#000" points="675.055 -122 552.945 -122 552.945 -86 675.055 -86 675.055 -122"/><text x="614" y="-99.8" fill="#000" font-family="Times,serif" font-size="14" text-anchor="middle">PetEditComponent</text></g><g id="edge2" class="edge"><title>PetEditComponent-&gt;PetsModule</title><path fill="none" stroke="#000" d="M580.0682,-122.027C580.0682,-138.3976 580.0682,-160 580.0682,-160 580.0682,-160 451.7639,-160 451.7639,-160"/><polygon fill="#000" stroke="#000" points="451.764 -156.5 441.764 -160 451.764 -163.5 451.764 -156.5"/></g><g id="node3" class="node"><title>PetListComponent</title><polygon fill="#ffffb3" stroke="#000" points="534.499 -122 413.501 -122 413.501 -86 534.499 -86 534.499 -122"/><text x="474" y="-99.8" fill="#000" font-family="Times,serif" font-size="14" text-anchor="middle">PetListComponent</text></g><g id="edge3" class="edge"><title>PetListComponent-&gt;PetsModule</title><path fill="none" stroke="#000" d="M427.4709,-122.1061C427.4709,-122.1061 427.4709,-140.991 427.4709,-140.991"/><polygon fill="#000" stroke="#000" points="423.971 -140.991 427.471 -150.991 430.971 -140.991 423.971 -140.991"/></g><g id="node7" class="node"><title>PetAddComponent</title><polygon fill="#fb8072" stroke="#000" points="607.327 -252 480.673 -252 480.673 -216 607.327 -216 607.327 -252"/><text x="544" y="-229.8" fill="#000" font-family="Times,serif" font-size="14" text-anchor="middle">PetAddComponent</text></g><g id="edge6" class="edge"><title>PetsModule-&gt;PetAddComponent</title><path fill="none" stroke="#000" stroke-dasharray="5 2" d="M441.5789,-178C471.8415,-178 507.543,-178 507.543,-178 507.543,-178 507.543,-205.973 507.543,-205.973"/><polygon fill="#000" stroke="#000" points="504.043 -205.973 507.543 -215.973 511.043 -205.973 504.043 -205.973"/></g><g id="node8" class="node"><title>PetEditComponent</title><polygon fill="#fb8072" stroke="#000" points="463.054 -252 336.946 -252 336.946 -216 463.054 -216 463.054 -252"/><text x="400" y="-229.8" fill="#000" font-family="Times,serif" font-size="14" text-anchor="middle">PetEditComponent</text></g><g id="edge7" class="edge"><title>PetsModule-&gt;PetEditComponent</title><path fill="none" stroke="#000" stroke-dasharray="5 2" d="M400,-187.1061C400,-187.1061 400,-205.991 400,-205.991"/><polygon fill="#000" stroke="#000" points="396.5 -205.991 400 -215.991 403.5 -205.991 396.5 -205.991"/></g><g id="node9" class="node"><title>PetListComponent</title><polygon fill="#fb8072" stroke="#000" points="319.5 -252 194.5 -252 194.5 -216 319.5 -216 319.5 -252"/><text x="257" y="-229.8" fill="#000" font-family="Times,serif" font-size="14" text-anchor="middle">PetListComponent</text></g><g id="edge8" class="edge"><title>PetsModule-&gt;PetListComponent</title><path fill="none" stroke="#000" stroke-dasharray="5 2" d="M358.3379,-178C327.4284,-178 290.6246,-178 290.6246,-178 290.6246,-178 290.6246,-205.973 290.6246,-205.973"/><polygon fill="#000" stroke="#000" points="287.125 -205.973 290.625 -215.973 294.125 -205.973 287.125 -205.973"/></g><g id="node5" class="node"><title>PetsRoutingModule</title><polygon fill="#8dd3c7" stroke="#000" points="390 -122 387 -126 366 -126 363 -122 262 -122 262 -86 390 -86 390 -122"/><text x="326" y="-99.8" fill="#000" font-family="Times,serif" font-size="14" text-anchor="middle">PetsRoutingModule</text></g><g id="edge4" class="edge"><title>PetsRoutingModule-&gt;PetsModule</title><path fill="none" stroke="#000" d="M374.2795,-122.1061C374.2795,-122.1061 374.2795,-140.991 374.2795,-140.991"/><polygon fill="#000" stroke="#000" points="370.779 -140.991 374.279 -150.991 377.779 -140.991 370.779 -140.991"/></g><g id="node6" class="node"><title>VisitsModule</title><polygon fill="#8dd3c7" stroke="#000" points="244.218 -122 241.218 -126 220.218 -126 217.218 -122 151.782 -122 151.782 -86 244.218 -86 244.218 -122"/><text x="198" y="-99.8" fill="#000" font-family="Times,serif" font-size="14" text-anchor="middle">VisitsModule</text></g><g id="edge5" class="edge"><title>VisitsModule-&gt;PetsModule</title><path fill="none" stroke="#000" d="M219.4297,-122.027C219.4297,-138.3976 219.4297,-160 219.4297,-160 219.4297,-160 348.5735,-160 348.5735,-160"/><polygon fill="#000" stroke="#000" points="348.574 -163.5 358.574 -160 348.574 -156.5 348.574 -163.5"/></g><g id="node10" class="node"><title>PetService</title><ellipse cx="76" cy="-104" fill="#fdb462" stroke="#000" rx="52.162" ry="18"/><text x="76" y="-99.8" fill="#000" font-family="Times,serif" font-size="14" text-anchor="middle">PetService</text></g><g id="edge9" class="edge"><title>PetService-&gt;PetsModule</title><path fill="none" stroke="#000" d="M76,-122.1061C76,-141.3391 76,-169 76,-169 76,-169 348.306,-169 348.306,-169"/><polygon fill="#000" stroke="#000" points="348.306 -172.5 358.306 -169 348.306 -165.5 348.306 -172.5"/></g></g></svg>