<svg xmlns="http://www.w3.org/2000/svg" xmlns:xlink="http://www.w3.org/1999/xlink" width="752pt" height="284pt" viewBox="0 0 752 284"><g id="graph0" class="graph" transform="scale(1 1) rotate(0) translate(4 280)"><title>dependencies</title><polygon fill="#fff" stroke="transparent" points="-4 4 -4 -280 748 -280 748 4 -4 4"/><text x="351.009" y="-42.4" fill="#000" font-family="sans-serif" font-size="14" font-weight="bold" text-anchor="start">Legend</text><polygon fill="#ffffb3" stroke="transparent" points="138 -10 138 -30 158 -30 158 -10 138 -10"/><text x="161.629" y="-15.4" fill="#000" font-family="sans-serif" font-size="14" text-anchor="start">Declarations</text><polygon fill="#8dd3c7" stroke="transparent" points="251 -10 251 -30 271 -30 271 -10 251 -10"/><text x="274.725" y="-15.4" fill="#000" font-family="sans-serif" font-size="14" text-anchor="start">Module</text><polygon fill="#80b1d3" stroke="transparent" points="337 -10 337 -30 357 -30 357 -10 337 -10"/><text x="360.781" y="-15.4" fill="#000" font-family="sans-serif" font-size="14" text-anchor="start">Bootstrap</text><polygon fill="#fdb462" stroke="transparent" points="434 -10 434 -30 454 -30 454 -10 434 -10"/><text x="457.673" y="-15.4" fill="#000" font-family="sans-serif" font-size="14" text-anchor="start">Providers</text><polygon fill="#fb8072" stroke="transparent" points="530 -10 530 -30 550 -30 550 -10 530 -10"/><text x="553.726" y="-15.4" fill="#000" font-family="sans-serif" font-size="14" text-anchor="start">Exports</text><g id="clust1" class="cluster"><title>cluster_VetsModule</title><polygon fill="none" stroke="#000" stroke-dasharray="1 5" points="8 -70 8 -268 736 -268 736 -70 8 -70"/></g><g id="clust2" class="cluster"><title>cluster_VetsModule_declarations</title><polygon fill="none" stroke="#000" points="302 -78 302 -130 728 -130 728 -78 302 -78"/></g><g id="clust6" class="cluster"><title>cluster_VetsModule_imports</title><polygon fill="none" stroke="#000" points="148 -78 148 -130 294 -130 294 -78 148 -78"/></g><g id="clust7" class="cluster"><title>cluster_VetsModule_exports</title><polygon fill="none" stroke="#000" points="155 -208 155 -260 592 -260 592 -208 155 -208"/></g><g id="clust9" class="cluster"><title>cluster_VetsModule_providers</title><polygon fill="none" stroke="#000" points="16 -78 16 -130 140 -130 140 -78 16 -78"/></g><g id="node1" class="node"><title>VetAddComponent</title><polygon fill="#ffffb3" stroke="#000" points="719.651 -122 594.349 -122 594.349 -86 719.651 -86 719.651 -122"/><text x="657" y="-99.8" fill="#000" font-family="Times,serif" font-size="14" text-anchor="middle">VetAddComponent</text></g><g id="node4" class="node"><title>VetsModule</title><polygon fill="#8dd3c7" stroke="#000" points="414.707 -187 411.707 -191 390.707 -191 387.707 -187 329.293 -187 329.293 -151 414.707 -151 414.707 -187"/><text x="372" y="-164.8" fill="#000" font-family="Times,serif" font-size="14" text-anchor="middle">VetsModule</text></g><g id="edge1" class="edge"><title>VetAddComponent-&gt;VetsModule</title><path fill="none" stroke="#000" d="M657,-122.1061C657,-141.3391 657,-169 657,-169 657,-169 424.6674,-169 424.6674,-169"/><polygon fill="#000" stroke="#000" points="424.667 -165.5 414.667 -169 424.667 -172.5 424.667 -165.5"/></g><g id="node2" class="node"><title>VetEditComponent</title><polygon fill="#ffffb3" stroke="#000" points="576.378 -122 451.622 -122 451.622 -86 576.378 -86 576.378 -122"/><text x="514" y="-99.8" fill="#000" font-family="Times,serif" font-size="14" text-anchor="middle">VetEditComponent</text></g><g id="edge2" class="edge"><title>VetEditComponent-&gt;VetsModule</title><path fill="none" stroke="#000" d="M535.7675,-122.027C535.7675,-138.3976 535.7675,-160 535.7675,-160 535.7675,-160 425.028,-160 425.028,-160"/><polygon fill="#000" stroke="#000" points="425.028 -156.5 415.028 -160 425.028 -163.5 425.028 -156.5"/></g><g id="node3" class="node"><title>VetListComponent</title><polygon fill="#ffffb3" stroke="#000" points="433.823 -122 310.177 -122 310.177 -86 433.823 -86 433.823 -122"/><text x="372" y="-99.8" fill="#000" font-family="Times,serif" font-size="14" text-anchor="middle">VetListComponent</text></g><g id="edge3" class="edge"><title>VetListComponent-&gt;VetsModule</title><path fill="none" stroke="#000" d="M372,-122.1061C372,-122.1061 372,-140.991 372,-140.991"/><polygon fill="#000" stroke="#000" points="368.5 -140.991 372 -150.991 375.5 -140.991 368.5 -140.991"/></g><g id="node6" class="node"><title>VetAddComponent</title><polygon fill="#fb8072" stroke="#000" points="583.651 -252 454.349 -252 454.349 -216 583.651 -216 583.651 -252"/><text x="519" y="-229.8" fill="#000" font-family="Times,serif" font-size="14" text-anchor="middle">VetAddComponent</text></g><g id="edge5" class="edge"><title>VetsModule-&gt;VetAddComponent</title><path fill="none" stroke="#000" stroke-dasharray="5 2" d="M414.7076,-178C450.2606,-178 495.0961,-178 495.0961,-178 495.0961,-178 495.0961,-205.973 495.0961,-205.973"/><polygon fill="#000" stroke="#000" points="491.596 -205.973 495.096 -215.973 498.596 -205.973 491.596 -205.973"/></g><g id="node7" class="node"><title>VetEditComponent</title><polygon fill="#fb8072" stroke="#000" points="436.379 -252 307.621 -252 307.621 -216 436.379 -216 436.379 -252"/><text x="372" y="-229.8" fill="#000" font-family="Times,serif" font-size="14" text-anchor="middle">VetEditComponent</text></g><g id="edge6" class="edge"><title>VetsModule-&gt;VetEditComponent</title><path fill="none" stroke="#000" stroke-dasharray="5 2" d="M372,-187.1061C372,-187.1061 372,-205.991 372,-205.991"/><polygon fill="#000" stroke="#000" points="368.5 -205.991 372 -215.991 375.5 -205.991 368.5 -205.991"/></g><g id="node8" class="node"><title>VetListComponent</title><polygon fill="#fb8072" stroke="#000" points="289.323 -252 162.677 -252 162.677 -216 289.323 -216 289.323 -252"/><text x="226" y="-229.8" fill="#000" font-family="Times,serif" font-size="14" text-anchor="middle">VetListComponent</text></g><g id="edge7" class="edge"><title>VetsModule-&gt;VetListComponent</title><path fill="none" stroke="#000" stroke-dasharray="5 2" d="M329.3478,-178C292.4445,-178 244.9709,-178 244.9709,-178 244.9709,-178 244.9709,-205.973 244.9709,-205.973"/><polygon fill="#000" stroke="#000" points="241.471 -205.973 244.971 -215.973 248.471 -205.973 241.471 -205.973"/></g><g id="node5" class="node"><title>VetsRoutingModule</title><polygon fill="#8dd3c7" stroke="#000" points="286.324 -122 283.324 -126 262.324 -126 259.324 -122 155.676 -122 155.676 -86 286.324 -86 286.324 -122"/><text x="221" y="-99.8" fill="#000" font-family="Times,serif" font-size="14" text-anchor="middle">VetsRoutingModule</text></g><g id="edge4" class="edge"><title>VetsRoutingModule-&gt;VetsModule</title><path fill="none" stroke="#000" d="M203.7798,-122.027C203.7798,-138.3976 203.7798,-160 203.7798,-160 203.7798,-160 319.1157,-160 319.1157,-160"/><polygon fill="#000" stroke="#000" points="319.116 -163.5 329.116 -160 319.116 -156.5 319.116 -163.5"/></g><g id="node9" class="node"><title>VetService</title><ellipse cx="78" cy="-104" fill="#fdb462" stroke="#000" rx="53.867" ry="18"/><text x="78" y="-99.8" fill="#000" font-family="Times,serif" font-size="14" text-anchor="middle">VetService</text></g><g id="edge8" class="edge"><title>VetService-&gt;VetsModule</title><path fill="none" stroke="#000" d="M78,-122.1061C78,-141.3391 78,-169 78,-169 78,-169 319.2499,-169 319.2499,-169"/><polygon fill="#000" stroke="#000" points="319.25 -172.5 329.25 -169 319.25 -165.5 319.25 -172.5"/></g></g></svg>