<svg xmlns="http://www.w3.org/2000/svg" xmlns:xlink="http://www.w3.org/1999/xlink" width="672" height="284pt" viewBox="0 0 504 284"><g id="graph0" class="graph" transform="scale(1 1) rotate(0) translate(4 280)"><title>dependencies</title><polygon fill="#fff" stroke="transparent" points="-4 4 -4 -280 500 -280 500 4 -4 4"/><text x="227.009" y="-42.4" fill="#000" font-family="sans-serif" font-size="14" font-weight="bold" text-anchor="start">Legend</text><polygon fill="#ffffb3" stroke="transparent" points="14 -10 14 -30 34 -30 34 -10 14 -10"/><text x="37.629" y="-15.4" fill="#000" font-family="sans-serif" font-size="14" text-anchor="start">Declarations</text><polygon fill="#8dd3c7" stroke="transparent" points="127 -10 127 -30 147 -30 147 -10 127 -10"/><text x="150.725" y="-15.4" fill="#000" font-family="sans-serif" font-size="14" text-anchor="start">Module</text><polygon fill="#80b1d3" stroke="transparent" points="213 -10 213 -30 233 -30 233 -10 213 -10"/><text x="236.781" y="-15.4" fill="#000" font-family="sans-serif" font-size="14" text-anchor="start">Bootstrap</text><polygon fill="#fdb462" stroke="transparent" points="310 -10 310 -30 330 -30 330 -10 310 -10"/><text x="333.673" y="-15.4" fill="#000" font-family="sans-serif" font-size="14" text-anchor="start">Providers</text><polygon fill="#fb8072" stroke="transparent" points="406 -10 406 -30 426 -30 426 -10 406 -10"/><text x="429.726" y="-15.4" fill="#000" font-family="sans-serif" font-size="14" text-anchor="start">Exports</text><g id="clust1" class="cluster"><title>cluster_PartsModule</title><polygon fill="none" stroke="#000" stroke-dasharray="1 5" points="69.5 -70 69.5 -268 426.5 -268 426.5 -70 69.5 -70"/></g><g id="clust2" class="cluster"><title>cluster_PartsModule_declarations</title><polygon fill="none" stroke="#000" points="81.5 -78 81.5 -130 415.5 -130 415.5 -78 81.5 -78"/></g><g id="clust6" class="cluster"><title>cluster_PartsModule_exports</title><polygon fill="none" stroke="#000" points="77.5 -208 77.5 -260 418.5 -260 418.5 -208 77.5 -208"/></g><g id="node1" class="node"><title>PageNotFoundComponent</title><polygon fill="#ffffb3" stroke="#000" points="407.324 -122 241.676 -122 241.676 -86 407.324 -86 407.324 -122"/><text x="324.5" y="-99.8" fill="#000" font-family="Times,serif" font-size="14" text-anchor="middle">PageNotFoundComponent</text></g><g id="node3" class="node"><title>PartsModule</title><polygon fill="#8dd3c7" stroke="#000" points="201.044 -187 198.044 -191 177.044 -191 174.044 -187 113.956 -187 113.956 -151 201.044 -151 201.044 -187"/><text x="157.5" y="-164.8" fill="#000" font-family="Times,serif" font-size="14" text-anchor="middle">PartsModule</text></g><g id="edge1" class="edge"><title>PageNotFoundComponent-&gt;PartsModule</title><path fill="none" stroke="#000" d="M352.1373,-122.0225C352.1373,-139.3734 352.1373,-163 352.1373,-163 352.1373,-163 211.1804,-163 211.1804,-163"/><polygon fill="#000" stroke="#000" points="211.18 -159.5 201.18 -163 211.18 -166.5 211.18 -159.5"/></g><g id="node2" class="node"><title>WelcomeComponent</title><polygon fill="#ffffb3" stroke="#000" points="223.972 -122 89.028 -122 89.028 -86 223.972 -86 223.972 -122"/><text x="156.5" y="-99.8" fill="#000" font-family="Times,serif" font-size="14" text-anchor="middle">WelcomeComponent</text></g><g id="edge2" class="edge"><title>WelcomeComponent-&gt;PartsModule</title><path fill="none" stroke="#000" d="M157.5,-122.1061C157.5,-122.1061 157.5,-140.991 157.5,-140.991"/><polygon fill="#000" stroke="#000" points="154 -140.991 157.5 -150.991 161 -140.991 154 -140.991"/></g><g id="node4" class="node"><title>PageNotFoundComponent</title><polygon fill="#fb8072" stroke="#000" points="410.824 -252 242.176 -252 242.176 -216 410.824 -216 410.824 -252"/><text x="326.5" y="-229.8" fill="#000" font-family="Times,serif" font-size="14" text-anchor="middle">PageNotFoundComponent</text></g><g id="edge3" class="edge"><title>PartsModule-&gt;PageNotFoundComponent</title><path fill="none" stroke="#000" stroke-dasharray="5 2" d="M201.2913,-175C242.2351,-175 297.1127,-175 297.1127,-175 297.1127,-175 297.1127,-205.9775 297.1127,-205.9775"/><polygon fill="#000" stroke="#000" points="293.613 -205.977 297.113 -215.977 300.613 -205.977 293.613 -205.977"/></g><g id="node5" class="node"><title>WelcomeComponent</title><polygon fill="#fb8072" stroke="#000" points="223.973 -252 85.027 -252 85.027 -216 223.973 -216 223.973 -252"/><text x="154.5" y="-229.8" fill="#000" font-family="Times,serif" font-size="14" text-anchor="middle">WelcomeComponent</text></g><g id="edge4" class="edge"><title>PartsModule-&gt;WelcomeComponent</title><path fill="none" stroke="#000" stroke-dasharray="5 2" d="M157.5,-187.1061C157.5,-187.1061 157.5,-205.991 157.5,-205.991"/><polygon fill="#000" stroke="#000" points="154 -205.991 157.5 -215.991 161 -205.991 154 -205.991"/></g></g></svg>