<svg xmlns="http://www.w3.org/2000/svg" xmlns:xlink="http://www.w3.org/1999/xlink" width="1744" height="284pt" viewBox="0 0 1308 284"><g id="graph0" class="graph" transform="scale(1 1) rotate(0) translate(4 280)"><title>dependencies</title><polygon fill="#fff" stroke="transparent" points="-4 4 -4 -280 1304 -280 1304 4 -4 4"/><text x="629.009" y="-42.4" fill="#000" font-family="sans-serif" font-size="14" font-weight="bold" text-anchor="start">Legend</text><polygon fill="#ffffb3" stroke="transparent" points="416 -10 416 -30 436 -30 436 -10 416 -10"/><text x="439.629" y="-15.4" fill="#000" font-family="sans-serif" font-size="14" text-anchor="start">Declarations</text><polygon fill="#8dd3c7" stroke="transparent" points="529 -10 529 -30 549 -30 549 -10 529 -10"/><text x="552.725" y="-15.4" fill="#000" font-family="sans-serif" font-size="14" text-anchor="start">Module</text><polygon fill="#80b1d3" stroke="transparent" points="615 -10 615 -30 635 -30 635 -10 615 -10"/><text x="638.781" y="-15.4" fill="#000" font-family="sans-serif" font-size="14" text-anchor="start">Bootstrap</text><polygon fill="#fdb462" stroke="transparent" points="712 -10 712 -30 732 -30 732 -10 712 -10"/><text x="735.673" y="-15.4" fill="#000" font-family="sans-serif" font-size="14" text-anchor="start">Providers</text><polygon fill="#fb8072" stroke="transparent" points="808 -10 808 -30 828 -30 828 -10 808 -10"/><text x="831.726" y="-15.4" fill="#000" font-family="sans-serif" font-size="14" text-anchor="start">Exports</text><g id="clust1" class="cluster"><title>cluster_AppModule</title><polygon fill="none" stroke="#000" stroke-dasharray="1 5" points="8 -70 8 -268 1292 -268 1292 -70 8 -70"/></g><g id="clust2" class="cluster"><title>cluster_AppModule_declarations</title><polygon fill="none" stroke="#000" points="1162 -78 1162 -130 1284 -130 1284 -78 1162 -78"/></g><g id="clust4" class="cluster"><title>cluster_AppModule_imports</title><polygon fill="none" stroke="#000" points="200 -78 200 -130 1154 -130 1154 -78 200 -78"/></g><g id="clust6" class="cluster"><title>cluster_AppModule_bootstrap</title><polygon fill="none" stroke="#000" points="597 -208 597 -260 721 -260 721 -208 597 -208"/></g><g id="clust7" class="cluster"><title>cluster_AppModule_providers</title><polygon fill="none" stroke="#000" points="16 -78 16 -130 192 -130 192 -78 16 -78"/></g><g id="node1" class="node"><title>AppComponent</title><polygon fill="#ffffb3" stroke="#000" points="1275.94 -122 1170.06 -122 1170.06 -86 1275.94 -86 1275.94 -122"/><text x="1223" y="-99.8" fill="#000" font-family="Times,serif" font-size="14" text-anchor="middle">AppComponent</text></g><g id="node2" class="node"><title>AppModule</title><polygon fill="#8dd3c7" stroke="#000" points="700.657 -187 697.657 -191 676.657 -191 673.657 -187 617.343 -187 617.343 -151 700.657 -151 700.657 -187"/><text x="659" y="-164.8" fill="#000" font-family="Times,serif" font-size="14" text-anchor="middle">AppModule</text></g><g id="edge1" class="edge"><title>AppComponent-&gt;AppModule</title><path fill="none" stroke="#000" d="M1223,-122.0109C1223,-144.4852 1223,-180 1223,-180 1223,-180 710.9309,-180 710.9309,-180"/><polygon fill="#000" stroke="#000" points="710.931 -176.5 700.931 -180 710.931 -183.5 710.931 -176.5"/></g><g id="node11" class="node"><title>AppComponent</title><polygon fill="#80b1d3" stroke="#000" points="713.439 -252 604.561 -252 604.561 -216 713.439 -216 713.439 -252"/><text x="659" y="-229.8" fill="#000" font-family="Times,serif" font-size="14" text-anchor="middle">AppComponent</text></g><g id="edge10" class="edge"><title>AppModule-&gt;AppComponent</title><path fill="none" stroke="#000" stroke-dasharray="1 5" d="M659,-187.1061C659,-187.1061 659,-205.991 659,-205.991"/><polygon fill="#000" stroke="#000" points="655.5 -205.991 659 -215.991 662.5 -205.991 655.5 -205.991"/></g><g id="node3" class="node"><title>AppRoutingModule</title><polygon fill="#8dd3c7" stroke="#000" points="1146.274 -122 1143.274 -126 1122.274 -126 1119.274 -122 1017.726 -122 1017.726 -86 1146.274 -86 1146.274 -122"/><text x="1082" y="-99.8" fill="#000" font-family="Times,serif" font-size="14" text-anchor="middle">AppRoutingModule</text></g><g id="edge2" class="edge"><title>AppRoutingModule-&gt;AppModule</title><path fill="none" stroke="#000" d="M1082,-122.1289C1082,-142.5724 1082,-173 1082,-173 1082,-173 710.7165,-173 710.7165,-173"/><polygon fill="#000" stroke="#000" points="710.717 -169.5 700.716 -173 710.716 -176.5 710.717 -169.5"/></g><g id="node4" class="node"><title>OwnersModule</title><polygon fill="#8dd3c7" stroke="#000" points="999.583 -122 996.583 -126 975.583 -126 972.583 -122 896.417 -122 896.417 -86 999.583 -86 999.583 -122"/><text x="948" y="-99.8" fill="#000" font-family="Times,serif" font-size="14" text-anchor="middle">OwnersModule</text></g><g id="edge3" class="edge"><title>OwnersModule-&gt;AppModule</title><path fill="none" stroke="#000" d="M948,-122.2667C948,-140.5552 948,-166 948,-166 948,-166 710.7144,-166 710.7144,-166"/><polygon fill="#000" stroke="#000" points="710.715 -162.5 700.714 -166 710.714 -169.5 710.715 -162.5"/></g><g id="node5" class="node"><title>PartsModule</title><polygon fill="#8dd3c7" stroke="#000" points="878.544 -122 875.544 -126 854.544 -126 851.544 -122 791.456 -122 791.456 -86 878.544 -86 878.544 -122"/><text x="835" y="-99.8" fill="#000" font-family="Times,serif" font-size="14" text-anchor="middle">PartsModule</text></g><g id="edge4" class="edge"><title>PartsModule-&gt;AppModule</title><path fill="none" stroke="#000" d="M835,-122.0091C835,-138.0494 835,-159 835,-159 835,-159 710.7095,-159 710.7095,-159"/><polygon fill="#000" stroke="#000" points="710.71 -155.5 700.71 -159 710.71 -162.5 710.71 -155.5"/></g><g id="node6" class="node"><title>PetTypesModule</title><polygon fill="#8dd3c7" stroke="#000" points="772.65 -122 769.65 -126 748.65 -126 745.65 -122 661.35 -122 661.35 -86 772.65 -86 772.65 -122"/><text x="717" y="-99.8" fill="#000" font-family="Times,serif" font-size="14" text-anchor="middle">PetTypesModule</text></g><g id="edge5" class="edge"><title>PetTypesModule-&gt;AppModule</title><path fill="none" stroke="#000" d="M681.0018,-122.1061C681.0018,-122.1061 681.0018,-140.991 681.0018,-140.991"/><polygon fill="#000" stroke="#000" points="677.502 -140.991 681.002 -150.991 684.502 -140.991 677.502 -140.991"/></g><g id="node7" class="node"><title>PetsModule</title><polygon fill="#8dd3c7" stroke="#000" points="643.382 -122 640.382 -126 619.382 -126 616.382 -122 560.618 -122 560.618 -86 643.382 -86 643.382 -122"/><text x="602" y="-99.8" fill="#000" font-family="Times,serif" font-size="14" text-anchor="middle">PetsModule</text></g><g id="edge6" class="edge"><title>PetsModule-&gt;AppModule</title><path fill="none" stroke="#000" d="M630.3065,-122.1061C630.3065,-122.1061 630.3065,-140.991 630.3065,-140.991"/><polygon fill="#000" stroke="#000" points="626.807 -140.991 630.307 -150.991 633.807 -140.991 626.807 -140.991"/></g><g id="node8" class="node"><title>SpecialtiesModule</title><polygon fill="#8dd3c7" stroke="#000" points="542.198 -122 539.198 -126 518.198 -126 515.198 -122 421.802 -122 421.802 -86 542.198 -86 542.198 -122"/><text x="482" y="-99.8" fill="#000" font-family="Times,serif" font-size="14" text-anchor="middle">SpecialtiesModule</text></g><g id="edge7" class="edge"><title>SpecialtiesModule-&gt;AppModule</title><path fill="none" stroke="#000" d="M482,-122.0091C482,-138.0494 482,-159 482,-159 482,-159 607.0535,-159 607.0535,-159"/><polygon fill="#000" stroke="#000" points="607.053 -162.5 617.053 -159 607.053 -155.5 607.053 -162.5"/></g><g id="node9" class="node"><title>VetsModule</title><polygon fill="#8dd3c7" stroke="#000" points="403.707 -122 400.707 -126 379.707 -126 376.707 -122 318.293 -122 318.293 -86 403.707 -86 403.707 -122"/><text x="361" y="-99.8" fill="#000" font-family="Times,serif" font-size="14" text-anchor="middle">VetsModule</text></g><g id="edge8" class="edge"><title>VetsModule-&gt;AppModule</title><path fill="none" stroke="#000" d="M361,-122.2667C361,-140.5552 361,-166 361,-166 361,-166 607.2506,-166 607.2506,-166"/><polygon fill="#000" stroke="#000" points="607.251 -169.5 617.251 -166 607.251 -162.5 607.251 -169.5"/></g><g id="node10" class="node"><title>VisitsModule</title><polygon fill="#8dd3c7" stroke="#000" points="300.218 -122 297.218 -126 276.218 -126 273.218 -122 207.782 -122 207.782 -86 300.218 -86 300.218 -122"/><text x="254" y="-99.8" fill="#000" font-family="Times,serif" font-size="14" text-anchor="middle">VisitsModule</text></g><g id="edge9" class="edge"><title>VisitsModule-&gt;AppModule</title><path fill="none" stroke="#000" d="M254,-122.1289C254,-142.5724 254,-173 254,-173 254,-173 607.1833,-173 607.1833,-173"/><polygon fill="#000" stroke="#000" points="607.183 -176.5 617.183 -173 607.183 -169.5 607.183 -176.5"/></g><g id="node12" class="node"><title>HttpErrorHandler</title><ellipse cx="104" cy="-104" fill="#fdb462" stroke="#000" rx="79.853" ry="18"/><text x="104" y="-99.8" fill="#000" font-family="Times,serif" font-size="14" text-anchor="middle">HttpErrorHandler</text></g><g id="edge11" class="edge"><title>HttpErrorHandler-&gt;AppModule</title><path fill="none" stroke="#000" d="M104,-122.0109C104,-144.4852 104,-180 104,-180 104,-180 607.2848,-180 607.2848,-180"/><polygon fill="#000" stroke="#000" points="607.285 -183.5 617.285 -180 607.285 -176.5 607.285 -183.5"/></g></g></svg>