<svg xmlns="http://www.w3.org/2000/svg" xmlns:xlink="http://www.w3.org/1999/xlink" width="928pt" height="284pt" viewBox="0 0 928 284"><g id="graph0" class="graph" transform="scale(1 1) rotate(0) translate(4 280)"><title>dependencies</title><polygon fill="#fff" stroke="transparent" points="-4 4 -4 -280 924 -280 924 4 -4 4"/><text x="439.009" y="-42.4" fill="#000" font-family="sans-serif" font-size="14" font-weight="bold" text-anchor="start">Legend</text><polygon fill="#ffffb3" stroke="transparent" points="226 -10 226 -30 246 -30 246 -10 226 -10"/><text x="249.629" y="-15.4" fill="#000" font-family="sans-serif" font-size="14" text-anchor="start">Declarations</text><polygon fill="#8dd3c7" stroke="transparent" points="339 -10 339 -30 359 -30 359 -10 339 -10"/><text x="362.725" y="-15.4" fill="#000" font-family="sans-serif" font-size="14" text-anchor="start">Module</text><polygon fill="#80b1d3" stroke="transparent" points="425 -10 425 -30 445 -30 445 -10 425 -10"/><text x="448.781" y="-15.4" fill="#000" font-family="sans-serif" font-size="14" text-anchor="start">Bootstrap</text><polygon fill="#fdb462" stroke="transparent" points="522 -10 522 -30 542 -30 542 -10 522 -10"/><text x="545.673" y="-15.4" fill="#000" font-family="sans-serif" font-size="14" text-anchor="start">Providers</text><polygon fill="#fb8072" stroke="transparent" points="618 -10 618 -30 638 -30 638 -10 618 -10"/><text x="641.726" y="-15.4" fill="#000" font-family="sans-serif" font-size="14" text-anchor="start">Exports</text><g id="clust1" class="cluster"><title>cluster_SpecialtiesModule</title><polygon fill="none" stroke="#000" stroke-dasharray="1 5" points="8 -70 8 -268 912 -268 912 -70 8 -70"/></g><g id="clust2" class="cluster"><title>cluster_SpecialtiesModule_declarations</title><polygon fill="none" stroke="#000" points="382 -78 382 -130 904 -130 904 -78 382 -78"/></g><g id="clust6" class="cluster"><title>cluster_SpecialtiesModule_imports</title><polygon fill="none" stroke="#000" points="192 -78 192 -130 374 -130 374 -78 192 -78"/></g><g id="clust7" class="cluster"><title>cluster_SpecialtiesModule_exports</title><polygon fill="none" stroke="#000" points="381 -208 381 -260 555 -260 555 -208 381 -208"/></g><g id="clust9" class="cluster"><title>cluster_SpecialtiesModule_providers</title><polygon fill="none" stroke="#000" points="16 -78 16 -130 184 -130 184 -78 16 -78"/></g><g id="node1" class="node"><title>SpecialtyAddComponent</title><polygon fill="#ffffb3" stroke="#000" points="895.538 -122 738.462 -122 738.462 -86 895.538 -86 895.538 -122"/><text x="817" y="-99.8" fill="#000" font-family="Times,serif" font-size="14" text-anchor="middle">SpecialtyAddComponent</text></g><g id="node4" class="node"><title>SpecialtiesModule</title><polygon fill="#8dd3c7" stroke="#000" points="528.198 -187 525.198 -191 504.198 -191 501.198 -187 407.802 -187 407.802 -151 528.198 -151 528.198 -187"/><text x="468" y="-164.8" fill="#000" font-family="Times,serif" font-size="14" text-anchor="middle">SpecialtiesModule</text></g><g id="edge1" class="edge"><title>SpecialtyAddComponent-&gt;SpecialtiesModule</title><path fill="none" stroke="#000" d="M817,-122.2843C817,-143.3211 817,-175 817,-175 817,-175 538.3927,-175 538.3927,-175"/><polygon fill="#000" stroke="#000" points="538.393 -171.5 528.393 -175 538.393 -178.5 538.393 -171.5"/></g><g id="node2" class="node"><title>SpecialtyEditComponent</title><polygon fill="#ffffb3" stroke="#000" points="720.265 -122 563.735 -122 563.735 -86 720.265 -86 720.265 -122"/><text x="642" y="-99.8" fill="#000" font-family="Times,serif" font-size="14" text-anchor="middle">SpecialtyEditComponent</text></g><g id="edge2" class="edge"><title>SpecialtyEditComponent-&gt;SpecialtiesModule</title><path fill="none" stroke="#000" d="M642,-122.0225C642,-139.3734 642,-163 642,-163 642,-163 538.3684,-163 538.3684,-163"/><polygon fill="#000" stroke="#000" points="538.369 -159.5 528.368 -163 538.368 -166.5 538.369 -159.5"/></g><g id="node3" class="node"><title>SpecialtyListComponent</title><polygon fill="#ffffb3" stroke="#000" points="545.709 -122 390.291 -122 390.291 -86 545.709 -86 545.709 -122"/><text x="468" y="-99.8" fill="#000" font-family="Times,serif" font-size="14" text-anchor="middle">SpecialtyListComponent</text></g><g id="edge3" class="edge"><title>SpecialtyListComponent-&gt;SpecialtiesModule</title><path fill="none" stroke="#000" d="M468,-122.1061C468,-122.1061 468,-140.991 468,-140.991"/><polygon fill="#000" stroke="#000" points="464.5 -140.991 468 -150.991 471.5 -140.991 464.5 -140.991"/></g><g id="node6" class="node"><title>SpecialtyListComponent</title><polygon fill="#fb8072" stroke="#000" points="547.209 -252 388.791 -252 388.791 -216 547.209 -216 547.209 -252"/><text x="468" y="-229.8" fill="#000" font-family="Times,serif" font-size="14" text-anchor="middle">SpecialtyListComponent</text></g><g id="edge5" class="edge"><title>SpecialtiesModule-&gt;SpecialtyListComponent</title><path fill="none" stroke="#000" stroke-dasharray="5 2" d="M468,-187.1061C468,-187.1061 468,-205.991 468,-205.991"/><polygon fill="#000" stroke="#000" points="464.5 -205.991 468 -215.991 471.5 -205.991 464.5 -205.991"/></g><g id="node5" class="node"><title>SpecialtiesRoutingModule</title><polygon fill="#8dd3c7" stroke="#000" points="365.816 -122 362.816 -126 341.816 -126 338.816 -122 200.184 -122 200.184 -86 365.816 -86 365.816 -122"/><text x="283" y="-99.8" fill="#000" font-family="Times,serif" font-size="14" text-anchor="middle">SpecialtiesRoutingModule</text></g><g id="edge4" class="edge"><title>SpecialtiesRoutingModule-&gt;SpecialtiesModule</title><path fill="none" stroke="#000" d="M283,-122.0225C283,-139.3734 283,-163 283,-163 283,-163 397.6801,-163 397.6801,-163"/><polygon fill="#000" stroke="#000" points="397.68 -166.5 407.68 -163 397.68 -159.5 397.68 -166.5"/></g><g id="node7" class="node"><title>SpecialtyService</title><ellipse cx="100" cy="-104" fill="#fdb462" stroke="#000" rx="75.857" ry="18"/><text x="100" y="-99.8" fill="#000" font-family="Times,serif" font-size="14" text-anchor="middle">SpecialtyService</text></g><g id="edge6" class="edge"><title>SpecialtyService-&gt;SpecialtiesModule</title><path fill="none" stroke="#000" d="M100,-122.2843C100,-143.3211 100,-175 100,-175 100,-175 397.6444,-175 397.6444,-175"/><polygon fill="#000" stroke="#000" points="397.644 -178.5 407.644 -175 397.644 -171.5 397.644 -178.5"/></g></g></svg>