<svg xmlns="http://www.w3.org/2000/svg" xmlns:xlink="http://www.w3.org/1999/xlink" width="1248" height="284pt" viewBox="0 0 936 284"><g id="graph0" class="graph" transform="scale(1 1) rotate(0) translate(4 280)"><title>dependencies</title><polygon fill="#fff" stroke="transparent" points="-4 4 -4 -280 932 -280 932 4 -4 4"/><text x="443.009" y="-42.4" fill="#000" font-family="sans-serif" font-size="14" font-weight="bold" text-anchor="start">Legend</text><polygon fill="#ffffb3" stroke="transparent" points="230 -10 230 -30 250 -30 250 -10 230 -10"/><text x="253.629" y="-15.4" fill="#000" font-family="sans-serif" font-size="14" text-anchor="start">Declarations</text><polygon fill="#8dd3c7" stroke="transparent" points="343 -10 343 -30 363 -30 363 -10 343 -10"/><text x="366.725" y="-15.4" fill="#000" font-family="sans-serif" font-size="14" text-anchor="start">Module</text><polygon fill="#80b1d3" stroke="transparent" points="429 -10 429 -30 449 -30 449 -10 429 -10"/><text x="452.781" y="-15.4" fill="#000" font-family="sans-serif" font-size="14" text-anchor="start">Bootstrap</text><polygon fill="#fdb462" stroke="transparent" points="526 -10 526 -30 546 -30 546 -10 526 -10"/><text x="549.673" y="-15.4" fill="#000" font-family="sans-serif" font-size="14" text-anchor="start">Providers</text><polygon fill="#fb8072" stroke="transparent" points="622 -10 622 -30 642 -30 642 -10 622 -10"/><text x="645.726" y="-15.4" fill="#000" font-family="sans-serif" font-size="14" text-anchor="start">Exports</text><g id="clust1" class="cluster"><title>cluster_VisitsModule</title><polygon fill="none" stroke="#000" stroke-dasharray="1 5" points="8 -70 8 -268 920 -268 920 -70 8 -70"/></g><g id="clust2" class="cluster"><title>cluster_VisitsModule_declarations</title><polygon fill="none" stroke="#000" points="466 -78 466 -130 912 -130 912 -78 466 -78"/></g><g id="clust6" class="cluster"><title>cluster_VisitsModule_imports</title><polygon fill="none" stroke="#000" points="158 -78 158 -130 458 -130 458 -78 158 -78"/></g><g id="clust7" class="cluster"><title>cluster_VisitsModule_exports</title><polygon fill="none" stroke="#000" points="234 -208 234 -260 692 -260 692 -208 234 -208"/></g><g id="clust9" class="cluster"><title>cluster_VisitsModule_providers</title><polygon fill="none" stroke="#000" points="16 -78 16 -130 150 -130 150 -78 16 -78"/></g><g id="node1" class="node"><title>VisitAddComponent</title><polygon fill="#ffffb3" stroke="#000" points="904.162 -122 771.838 -122 771.838 -86 904.162 -86 904.162 -122"/><text x="838" y="-99.8" fill="#000" font-family="Times,serif" font-size="14" text-anchor="middle">VisitAddComponent</text></g><g id="node4" class="node"><title>VisitsModule</title><polygon fill="#8dd3c7" stroke="#000" points="508.218 -187 505.218 -191 484.218 -191 481.218 -187 415.782 -187 415.782 -151 508.218 -151 508.218 -187"/><text x="462" y="-164.8" fill="#000" font-family="Times,serif" font-size="14" text-anchor="middle">VisitsModule</text></g><g id="edge1" class="edge"><title>VisitAddComponent-&gt;VisitsModule</title><path fill="none" stroke="#000" d="M838,-122.1061C838,-141.3391 838,-169 838,-169 838,-169 518.4821,-169 518.4821,-169"/><polygon fill="#000" stroke="#000" points="518.482 -165.5 508.482 -169 518.482 -172.5 518.482 -165.5"/></g><g id="node2" class="node"><title>VisitEditComponent</title><polygon fill="#ffffb3" stroke="#000" points="753.889 -122 622.111 -122 622.111 -86 753.889 -86 753.889 -122"/><text x="688" y="-99.8" fill="#000" font-family="Times,serif" font-size="14" text-anchor="middle">VisitEditComponent</text></g><g id="edge2" class="edge"><title>VisitEditComponent-&gt;VisitsModule</title><path fill="none" stroke="#000" d="M653.0682,-122.027C653.0682,-138.3976 653.0682,-160 653.0682,-160 653.0682,-160 518.2523,-160 518.2523,-160"/><polygon fill="#000" stroke="#000" points="518.252 -156.5 508.252 -160 518.252 -163.5 518.252 -156.5"/></g><g id="node3" class="node"><title>VisitListComponent</title><polygon fill="#ffffb3" stroke="#000" points="604.334 -122 473.666 -122 473.666 -86 604.334 -86 604.334 -122"/><text x="539" y="-99.8" fill="#000" font-family="Times,serif" font-size="14" text-anchor="middle">VisitListComponent</text></g><g id="edge3" class="edge"><title>VisitListComponent-&gt;VisitsModule</title><path fill="none" stroke="#000" d="M490.9709,-122.1061C490.9709,-122.1061 490.9709,-140.991 490.9709,-140.991"/><polygon fill="#000" stroke="#000" points="487.471 -140.991 490.971 -150.991 494.471 -140.991 487.471 -140.991"/></g><g id="node7" class="node"><title>VisitAddComponent</title><polygon fill="#fb8072" stroke="#000" points="684.162 -252 547.838 -252 547.838 -216 684.162 -216 684.162 -252"/><text x="616" y="-229.8" fill="#000" font-family="Times,serif" font-size="14" text-anchor="middle">VisitAddComponent</text></g><g id="edge6" class="edge"><title>VisitsModule-&gt;VisitAddComponent</title><path fill="none" stroke="#000" stroke-dasharray="5 2" d="M508.3856,-178C539.959,-178 576.043,-178 576.043,-178 576.043,-178 576.043,-205.973 576.043,-205.973"/><polygon fill="#000" stroke="#000" points="572.543 -205.973 576.043 -215.973 579.543 -205.973 572.543 -205.973"/></g><g id="node8" class="node"><title>VisitEditComponent</title><polygon fill="#fb8072" stroke="#000" points="529.89 -252 394.11 -252 394.11 -216 529.89 -216 529.89 -252"/><text x="462" y="-229.8" fill="#000" font-family="Times,serif" font-size="14" text-anchor="middle">VisitEditComponent</text></g><g id="edge7" class="edge"><title>VisitsModule-&gt;VisitEditComponent</title><path fill="none" stroke="#000" stroke-dasharray="5 2" d="M462,-187.1061C462,-187.1061 462,-205.991 462,-205.991"/><polygon fill="#000" stroke="#000" points="458.5 -205.991 462 -215.991 465.5 -205.991 458.5 -205.991"/></g><g id="node9" class="node"><title>VisitListComponent</title><polygon fill="#fb8072" stroke="#000" points="375.834 -252 242.166 -252 242.166 -216 375.834 -216 375.834 -252"/><text x="309" y="-229.8" fill="#000" font-family="Times,serif" font-size="14" text-anchor="middle">VisitListComponent</text></g><g id="edge8" class="edge"><title>VisitsModule-&gt;VisitListComponent</title><path fill="none" stroke="#000" stroke-dasharray="5 2" d="M415.6955,-178C384.4776,-178 348.9584,-178 348.9584,-178 348.9584,-178 348.9584,-205.973 348.9584,-205.973"/><polygon fill="#000" stroke="#000" points="345.459 -205.973 348.958 -215.973 352.459 -205.973 345.459 -205.973"/></g><g id="node5" class="node"><title>PetsRoutingModule</title><polygon fill="#8dd3c7" stroke="#000" points="450 -122 447 -126 426 -126 423 -122 322 -122 322 -86 450 -86 450 -122"/><text x="386" y="-99.8" fill="#000" font-family="Times,serif" font-size="14" text-anchor="middle">PetsRoutingModule</text></g><g id="edge4" class="edge"><title>PetsRoutingModule-&gt;VisitsModule</title><path fill="none" stroke="#000" d="M432.9457,-122.1061C432.9457,-122.1061 432.9457,-140.991 432.9457,-140.991"/><polygon fill="#000" stroke="#000" points="429.446 -140.991 432.946 -150.991 436.446 -140.991 429.446 -140.991"/></g><g id="node6" class="node"><title>VisitsRoutingModule</title><polygon fill="#8dd3c7" stroke="#000" points="303.836 -122 300.836 -126 279.836 -126 276.836 -122 166.164 -122 166.164 -86 303.836 -86 303.836 -122"/><text x="235" y="-99.8" fill="#000" font-family="Times,serif" font-size="14" text-anchor="middle">VisitsRoutingModule</text></g><g id="edge5" class="edge"><title>VisitsRoutingModule-&gt;VisitsModule</title><path fill="none" stroke="#000" d="M272.8754,-122.027C272.8754,-138.3976 272.8754,-160 272.8754,-160 272.8754,-160 405.7349,-160 405.7349,-160"/><polygon fill="#000" stroke="#000" points="405.735 -163.5 415.735 -160 405.735 -156.5 405.735 -163.5"/></g><g id="node10" class="node"><title>VisitService</title><ellipse cx="83" cy="-104" fill="#fdb462" stroke="#000" rx="58.541" ry="18"/><text x="83" y="-99.8" fill="#000" font-family="Times,serif" font-size="14" text-anchor="middle">VisitService</text></g><g id="edge9" class="edge"><title>VisitService-&gt;VisitsModule</title><path fill="none" stroke="#000" d="M83,-122.1061C83,-141.3391 83,-169 83,-169 83,-169 405.5272,-169 405.5272,-169"/><polygon fill="#000" stroke="#000" points="405.527 -172.5 415.527 -169 405.527 -165.5 405.527 -172.5"/></g></g></svg>