<svg xmlns="http://www.w3.org/2000/svg" xmlns:xlink="http://www.w3.org/1999/xlink" width="1121pt" height="211pt" viewBox="0 0 1121 211"><g id="graph0" class="graph" transform="scale(1 1) rotate(0) translate(4 207)"><title>dependencies</title><polygon fill="#fff" stroke="transparent" points="-4 4 -4 -207 1117 -207 1117 4 -4 4"/><text x="535.509" y="-42.4" fill="#000" font-family="sans-serif" font-size="14" font-weight="bold" text-anchor="start">Legend</text><polygon fill="#ffffb3" stroke="transparent" points="322.5 -10 322.5 -30 342.5 -30 342.5 -10 322.5 -10"/><text x="346.129" y="-15.4" fill="#000" font-family="sans-serif" font-size="14" text-anchor="start">Declarations</text><polygon fill="#8dd3c7" stroke="transparent" points="435.5 -10 435.5 -30 455.5 -30 455.5 -10 435.5 -10"/><text x="459.225" y="-15.4" fill="#000" font-family="sans-serif" font-size="14" text-anchor="start">Module</text><polygon fill="#80b1d3" stroke="transparent" points="521.5 -10 521.5 -30 541.5 -30 541.5 -10 521.5 -10"/><text x="545.281" y="-15.4" fill="#000" font-family="sans-serif" font-size="14" text-anchor="start">Bootstrap</text><polygon fill="#fdb462" stroke="transparent" points="618.5 -10 618.5 -30 638.5 -30 638.5 -10 618.5 -10"/><text x="642.173" y="-15.4" fill="#000" font-family="sans-serif" font-size="14" text-anchor="start">Providers</text><polygon fill="#fb8072" stroke="transparent" points="714.5 -10 714.5 -30 734.5 -30 734.5 -10 714.5 -10"/><text x="738.226" y="-15.4" fill="#000" font-family="sans-serif" font-size="14" text-anchor="start">Exports</text><g id="clust1" class="cluster"><title>cluster_OwnersModule</title><polygon fill="none" stroke="#000" stroke-dasharray="1 5" points="8 -70 8 -195 1105 -195 1105 -70 8 -70"/></g><g id="clust2" class="cluster"><title>cluster_OwnersModule_declarations</title><polygon fill="none" stroke="#000" points="445 -78 445 -130 1097 -130 1097 -78 445 -78"/></g><g id="clust7" class="cluster"><title>cluster_OwnersModule_imports</title><polygon fill="none" stroke="#000" points="172 -78 172 -130 437 -130 437 -78 172 -78"/></g><g id="clust10" class="cluster"><title>cluster_OwnersModule_providers</title><polygon fill="none" stroke="#000" points="16 -78 16 -130 164 -130 164 -78 16 -78"/></g><g id="node1" class="node"><title>OwnerAddComponent</title><polygon fill="#ffffb3" stroke="#000" points="1088.528 -122 945.472 -122 945.472 -86 1088.528 -86 1088.528 -122"/><text x="1017" y="-99.8" fill="#000" font-family="Times,serif" font-size="14" text-anchor="middle">OwnerAddComponent</text></g><g id="node5" class="node"><title>OwnersModule</title><polygon fill="#8dd3c7" stroke="#000" points="575.583 -187 572.583 -191 551.583 -191 548.583 -187 472.417 -187 472.417 -151 575.583 -151 575.583 -187"/><text x="524" y="-164.8" fill="#000" font-family="Times,serif" font-size="14" text-anchor="middle">OwnersModule</text></g><g id="edge1" class="edge"><title>OwnerAddComponent-&gt;OwnersModule</title><path fill="none" stroke="#000" d="M1017,-122.2921C1017,-144.2057 1017,-178 1017,-178 1017,-178 585.8278,-178 585.8278,-178"/><polygon fill="#000" stroke="#000" points="585.828 -174.5 575.828 -178 585.828 -181.5 585.828 -174.5"/></g><g id="node2" class="node"><title>OwnerDetailComponent</title><polygon fill="#ffffb3" stroke="#000" points="926.629 -122 773.371 -122 773.371 -86 926.629 -86 926.629 -122"/><text x="850" y="-99.8" fill="#000" font-family="Times,serif" font-size="14" text-anchor="middle">OwnerDetailComponent</text></g><g id="edge2" class="edge"><title>OwnerDetailComponent-&gt;OwnersModule</title><path fill="none" stroke="#000" d="M850,-122.1061C850,-141.3391 850,-169 850,-169 850,-169 585.6557,-169 585.6557,-169"/><polygon fill="#000" stroke="#000" points="585.656 -165.5 575.656 -169 585.656 -172.5 585.656 -165.5"/></g><g id="node3" class="node"><title>OwnerEditComponent</title><polygon fill="#ffffb3" stroke="#000" points="755.255 -122 612.745 -122 612.745 -86 755.255 -86 755.255 -122"/><text x="684" y="-99.8" fill="#000" font-family="Times,serif" font-size="14" text-anchor="middle">OwnerEditComponent</text></g><g id="edge3" class="edge"><title>OwnerEditComponent-&gt;OwnersModule</title><path fill="none" stroke="#000" d="M684,-122.027C684,-138.3976 684,-160 684,-160 684,-160 585.9474,-160 585.9474,-160"/><polygon fill="#000" stroke="#000" points="585.947 -156.5 575.947 -160 585.947 -163.5 585.947 -156.5"/></g><g id="node4" class="node"><title>OwnerListComponent</title><polygon fill="#ffffb3" stroke="#000" points="594.699 -122 453.301 -122 453.301 -86 594.699 -86 594.699 -122"/><text x="524" y="-99.8" fill="#000" font-family="Times,serif" font-size="14" text-anchor="middle">OwnerListComponent</text></g><g id="edge4" class="edge"><title>OwnerListComponent-&gt;OwnersModule</title><path fill="none" stroke="#000" d="M524,-122.1061C524,-122.1061 524,-140.991 524,-140.991"/><polygon fill="#000" stroke="#000" points="520.5 -140.991 524 -150.991 527.5 -140.991 520.5 -140.991"/></g><g id="node6" class="node"><title>OwnersRoutingModule</title><polygon fill="#8dd3c7" stroke="#000" points="429.201 -122 426.201 -126 405.201 -126 402.201 -122 280.799 -122 280.799 -86 429.201 -86 429.201 -122"/><text x="355" y="-99.8" fill="#000" font-family="Times,serif" font-size="14" text-anchor="middle">OwnersRoutingModule</text></g><g id="edge5" class="edge"><title>OwnersRoutingModule-&gt;OwnersModule</title><path fill="none" stroke="#000" d="M355,-122.027C355,-138.3976 355,-160 355,-160 355,-160 462.3761,-160 462.3761,-160"/><polygon fill="#000" stroke="#000" points="462.376 -163.5 472.376 -160 462.376 -156.5 462.376 -163.5"/></g><g id="node7" class="node"><title>PetsModule</title><polygon fill="#8dd3c7" stroke="#000" points="262.382 -122 259.382 -126 238.382 -126 235.382 -122 179.618 -122 179.618 -86 262.382 -86 262.382 -122"/><text x="221" y="-99.8" fill="#000" font-family="Times,serif" font-size="14" text-anchor="middle">PetsModule</text></g><g id="edge6" class="edge"><title>PetsModule-&gt;OwnersModule</title><path fill="none" stroke="#000" d="M221,-122.1061C221,-141.3391 221,-169 221,-169 221,-169 462.2567,-169 462.2567,-169"/><polygon fill="#000" stroke="#000" points="462.257 -172.5 472.257 -169 462.257 -165.5 462.257 -172.5"/></g><g id="node8" class="node"><title>OwnerService</title><ellipse cx="90" cy="-104" fill="#fdb462" stroke="#000" rx="66.03" ry="18"/><text x="90" y="-99.8" fill="#000" font-family="Times,serif" font-size="14" text-anchor="middle">OwnerService</text></g><g id="edge7" class="edge"><title>OwnerService-&gt;OwnersModule</title><path fill="none" stroke="#000" d="M90,-122.2921C90,-144.2057 90,-178 90,-178 90,-178 462.0805,-178 462.0805,-178"/><polygon fill="#000" stroke="#000" points="462.081 -181.5 472.08 -178 462.08 -174.5 462.081 -181.5"/></g></g></svg>